<?xml version="1.0" encoding="utf-8"?>
<!-- Generator: Adobe Illustrator 18.0.0, SVG Export Plug-In . SVG Version: 6.00 Build 0)  -->
<!DOCTYPE svg PUBLIC "-//W3C//DTD SVG 1.1//EN" "http://www.w3.org/Graphics/SVG/1.1/DTD/svg11.dtd">
<svg version="1.1" id="Layer_1" xmlns="http://www.w3.org/2000/svg" xmlns:xlink="http://www.w3.org/1999/xlink" x="0px" y="0px"
	 viewBox="0 0 200 200" enable-background="new 0 0 200 200" xml:space="preserve">
<path fill="#010202" d="M130.5,32.7c0-3.5-22.5-3.7-29.5-3.7c-7,0-29.5,0.2-29.5,3.7c0,0.5,0.5,0.9,0.9,1.1l28,25.6l0.6,0.6l0.6-0.6
	l27.8-25.6C130.3,33.4,130.5,33.1,130.5,32.7z M101.2,30.5c14.7,0,24.2,1.1,27.1,2c-2.6,0.9-12.5,2-27.1,2s-24.2-1.1-27.1-2
	C76.7,31.5,86.6,30.5,101.2,30.5z M101,57.1L75.5,34.6c6.8,1.5,20.6,1.7,25.6,1.7c5,0,18.8-0.2,25.6-1.7L101,57.1z"/>
<path fill="#010202" d="M85.9,40.6c-0.6,0-1.3-0.5-1.3-1.3c0-0.6,0.5-1.3,1.3-1.3s1.3,0.5,1.3,1.3C87,39.9,86.6,40.6,85.9,40.6z
	 M85.9,38.6c-0.5,0-0.6,0.5-0.6,0.6c0,0.5,0.5,0.6,0.6,0.6c0.5,0,0.6-0.5,0.6-0.6C86.6,38.8,86.1,38.6,85.9,38.6z"/>
<path fill="#010202" d="M96,47.1c-0.5,0-0.9-0.5-0.9-0.9c0-0.5,0.5-0.9,0.9-0.9c0.4,0,0.9,0.5,0.9,0.9C96.9,46.7,96.4,47.1,96,47.1z
	 M96,45.6c-0.2,0-0.5,0.2-0.5,0.5s0.2,0.5,0.5,0.5c0.2,0,0.5-0.2,0.5-0.5S96.2,45.6,96,45.6z"/>
<path fill="#010202" d="M101,42.6c-1.1,0-2-0.9-2-2s0.9-2,2-2s2,0.9,2,2S102.1,42.6,101,42.6z M101,39.2c-0.9,0-1.5,0.6-1.5,1.5
	s0.6,1.5,1.5,1.5s1.5-0.6,1.5-1.5S101.9,39.2,101,39.2z"/>
<path fill="#010202" d="M101.4,52.6c-0.5,0-0.9-0.5-0.9-0.9c0-0.5,0.5-0.9,0.9-0.9c0.5,0,0.9,0.5,0.9,0.9S101.9,52.6,101.4,52.6z
	 M101.4,51.5c-0.2,0-0.5,0.2-0.5,0.5c0,0.2,0.2,0.5,0.5,0.5s0.5-0.2,0.5-0.5C101.9,51.7,101.7,51.5,101.4,51.5z"/>
<path fill="#010202" d="M106.7,44c-0.6,0-1.3-0.5-1.3-1.3s0.5-1.3,1.3-1.3c0.6,0,1.3,0.5,1.3,1.3S107.3,44,106.7,44z M106.7,42.1
	c-0.5,0-0.6,0.5-0.6,0.6c0,0.2,0.5,0.6,0.6,0.6c0.5,0,0.6-0.5,0.6-0.6C107.3,42.6,107.1,42.1,106.7,42.1z"/>
<circle fill="#010202" cx="104.9" cy="48.2" r="0.6"/>
<path fill="#010202" d="M114.5,40.1c-0.6,0-1.3-0.6-1.3-1.3s0.6-1.3,1.3-1.3c0.7,0,1.3,0.6,1.3,1.3
	C116.1,39.5,115.4,40.1,114.5,40.1z M114.5,37.7c-0.5,0-0.9,0.5-0.9,0.9s0.5,0.9,0.9,0.9c0.4,0,0.9-0.5,0.9-0.9
	S115.2,37.7,114.5,37.7z"/>
<circle fill="#010202" cx="112.2" cy="44.9" r="0.6"/>
<circle fill="#010202" cx="90.9" cy="40.3" r="0.6"/>
<path fill="#010202" d="M91.4,45.8c-0.5,0-0.9-0.5-0.9-0.9c0-0.5,0.5-0.9,0.9-0.9c0.4,0,0.9,0.5,0.9,0.9
	C92.2,45.3,92,45.8,91.4,45.8z M91.4,44.5c-0.2,0-0.5,0.2-0.5,0.5s0.2,0.5,0.5,0.5s0.5-0.2,0.5-0.5C91.8,44.7,91.6,44.5,91.4,44.5z"
	/>
<path fill="#010202" d="M128.8,17.6v-0.9l0,0C128.8,17,128.8,17.4,128.8,17.6z"/>
<path fill="#010202" d="M101,63.3L61,24.1c2,0.5,5,1.1,9.4,1.5c8.1,0.9,19,1.5,30.6,1.5c9.7,0,18.8-0.5,26.4-1.1
	c-0.2-0.6-0.2-1.1-0.5-1.7c-7,0.5-15.8,0.9-26,0.9c-24.9,0-40.2-2.4-42-3.9c1.7-1.7,17.2-3.9,42-3.9c9.4,0,18.3,0.5,25.8,1.1
	c0-0.6,0.2-1.1,0.5-1.7c-7.5-0.6-16.8-1.1-26.2-1.1c-11.6,0-22.3,0.5-30.6,1.5c-13.3,1.5-13.3,3.5-13.3,4.4c0,0.2,0,0.2,0,0.5l0,0
	l0,0c0.2,0.2,0.5,0.6,1.1,1.1l41.3,42.2c0.2,1.3,0.5,3.7,0.5,7c0.2,2.4,0.2,5.2,0.2,8.1c0,1.5,0,3.1,0,4.6c0,1.5,0,3.1,0,4.8
	c0,3.3-0.2,6.3-0.5,9.4c-0.2,3.1-0.5,5.7-0.5,8.1c0,1.3-0.2,2.4-0.2,3.3c-12.2,0.2-32.3,1.7-32.3,6.8c0,5.5,22.5,6.8,34.5,6.8
	s34.5-1.5,34.5-6.8c0-5-20.3-6.6-32.6-6.8c0-1.1-0.2-2.2-0.2-3.3c-0.2-2.4-0.5-5.2-0.5-8.1c-0.2-3.1-0.2-6.1-0.5-9.4
	c0-1.5,0-3.3,0-4.8c0-1.5,0-3.1,0-4.6c0-3.1,0.2-5.7,0.2-8.1c0.2-3.3,0.5-5.7,0.5-7L133,34.5c-0.5-0.5-0.6-0.6-1.1-1.1L101,63.3z
	 M103.6,114.9c0,0-0.2-0.9-0.2-2.2c0-0.2,0-0.5,0-0.6c20.1,0.2,30.6,3.3,30.6,5c0,1.7-11.1,5-32.8,5c-21.4,0-32.8-3.3-32.8-5
	c0-1.7,10.5-4.8,30.3-5c0,0.2,0,0.5,0,0.6c-0.2,1.3-0.2,2.2-0.2,2.2s0.6,0.9,2.4,0.9C102.8,115.9,103.6,114.9,103.6,114.9z"/>
<path fill="#010202" d="M136.4,30.5l7-7.2c0-0.9,0-1.3,0-1.3S138.8,27,136.4,30.5z"/>
<path fill="#010202" d="M144.3,22.6L144.3,22.6C144.5,22.4,144.5,22.4,144.3,22.6l0.2-0.2c-0.2-0.2-0.2-0.2-0.2-0.2
	S144.3,22.2,144.3,22.6z"/>
<path fill="#010202" d="M150.6,5.1c-8.7-3.7-19,0.5-22.7,9.2c-0.2,0.6-0.6,1.5-0.6,2.2c-7.5-0.6-16.8-1.1-26.2-1.1
	c-11.6,0-22.3,0.5-30.6,1.5c-13.3,1.5-13.3,3.5-13.3,4.4c0,0.2,0,0.2,0,0.5l0,0l0,0c0.2,0.2,0.5,0.6,1.1,1.1L99.5,65
	c0.2,1.3,0.5,3.7,0.5,7c0.2,2.4,0.2,5.2,0.2,8.1c0,1.5,0,3.1,0,4.6s0,3.1,0,4.8c0,3.3-0.2,6.3-0.5,9.4c-0.2,3.1-0.5,5.7-0.5,8.1
	c0,1.3-0.2,2.4-0.2,3.3c-12.2,0.2-32.3,1.7-32.3,6.8c0,5.5,22.5,6.8,34.5,6.8s34.5-1.5,34.5-6.8c0-5-20.3-6.6-32.6-6.8
	c0-1.1-0.2-2.2-0.2-3.3c-0.2-2.4-0.5-5.2-0.5-8.1c-0.2-3.1-0.2-6.1-0.5-9.4c0-1.5,0-3.3,0-4.8c0-1.5,0-3.1,0-4.6
	c0-3.1,0.2-5.7,0.2-8.1c0.2-3.3,0.5-5.7,0.5-7l30.1-30.8c1.3,1.1,2.9,2,4.4,2.6c8.7,3.7,19-0.5,22.7-9.2
	C163.5,18.9,159.3,8.9,150.6,5.1z M137.9,6.7c1.7-0.6,3.1-1.3,3.9,0.9c1.5,3.7,1.5,12.7,1.5,12.7s-6.1-6.3-7.6-10
	C134.6,7.5,136.2,7.3,137.9,6.7z M128.8,16.7c0.2-0.5,0.5-1.1,0.6-1.7c0.6-1.7,1.3-3.1,3.5-2.2c3.7,1.5,10,7.9,10,7.9s-9,0-12.5-1.7
	c-1.1-0.5-1.5-0.9-1.5-1.5L128.8,16.7c-0.2,0-0.5,0-0.9,0C128.4,16.7,128.5,16.7,128.8,16.7z M129,24.2c0.2-0.5,0.6-0.9,1.3-1.1
	c3.3-1.3,10.9-1.5,12.2-1.5C141.2,22.4,136.4,23.3,129,24.2z M101,17.4c9.4,0,18.3,0.5,25.8,1.1c-0.2,2-0.2,3.9,0,5.9
	c-6.8,0.5-15.6,0.9-25.8,0.9c-24.9,0-40.2-2.4-42-3.9C60.5,19.5,76.1,17.4,101,17.4z M103.6,114.9c0,0-0.2-0.9-0.2-2.2
	c0-0.2,0-0.5,0-0.6c20.1,0.2,30.6,3.3,30.6,5c0,1.7-11.1,5-32.8,5c-21.4,0-32.8-3.3-32.8-5c0-1.7,10.5-4.8,30.3-5c0,0.2,0,0.5,0,0.6
	c-0.2,1.3-0.2,2.2-0.2,2.2s0.6,0.9,2.4,0.9C102.8,115.9,103.6,114.9,103.6,114.9z M101,63.3L61,24.1c2,0.5,5,1.1,9.4,1.5
	c8.1,0.9,19,1.5,30.6,1.5s22.3-0.5,30.6-1.5c3.7-0.5,6.3-0.9,8.3-1.3c-2.2,1.7-4.8,3.9-6.8,4.6c-2.4,1.1-3.3-1.7-3.5-2.2
	c-0.6,0-1.1,0-1.7,0.2c0.9,2.6,1.3,3.3,3.3,5.2l9.8-8.3l0,0L101,63.3z M141.9,34.6c-1.1,2.4-2.2,1.5-3.9,0.9
	c-1.7-0.6-3.1-1.3-2.2-3.5c0.2-0.5,0.5-0.9,0.9-1.5l7-7.2C143.4,26.1,142.9,31.8,141.9,34.6z M158.2,15.2c0.6,1.7,1.3,3.1-0.9,3.9
	c-3.7,1.5-12.7,1.5-12.7,1.5s6.3-6.1,10-7.6C157.4,11.9,157.6,13.4,158.2,15.2z M145.8,7.5c1.1-2.4,2.2-1.5,3.9-0.9
	c1.7,0.6,3.1,1.3,2.2,3.5c-1.5,3.7-7.9,10-7.9,10S144.3,11.1,145.8,7.5z M149.7,35.6c-1.7,0.6-3.1,1.3-3.9-0.9
	c-1.3-3.3-1.5-10.3-1.5-12l-0.5,0.5l0.5-0.5l0,0L145,22l-0.5,0.5c1.1,1.1,6.1,6.6,7.5,9.8C153,34.6,151.5,34.9,149.7,35.6z
	 M158.2,27c-0.6,1.7-1.3,3.1-3.5,2.2c-3.7-1.5-10-7.9-10-7.9s9,0,12.5,1.7C160,24.2,158.9,25.3,158.2,27z"/>
<text transform="matrix(1 0 0 1 8.2833 149.8765)" fill="#010202" font-family="'MonotypeCorsiva'" font-size="27.9405">awesome cocktails </text>
<text transform="matrix(1 0 0 1 8.2833 183.397)" fill="#010202" font-family="'MonotypeCorsiva'" font-size="27.9405">   @lewagonbar</text>
</svg>
