<?xml version="1.0" encoding="utf-8"?>
<!-- Generator: Adobe Illustrator 18.0.0, SVG Export Plug-In . SVG Version: 6.00 Build 0)  -->
<!DOCTYPE svg PUBLIC "-//W3C//DTD SVG 1.1//EN" "http://www.w3.org/Graphics/SVG/1.1/DTD/svg11.dtd">
<svg version="1.1" id="Layer_1" xmlns="http://www.w3.org/2000/svg" xmlns:xlink="http://www.w3.org/1999/xlink" x="0px" y="0px"
	 viewBox="0 252 647 292" enable-background="new 0 252 647 292" xml:space="preserve">
<path d="M181.9,334.5c0-6.3-40.9-6.7-53.5-6.7c-12.7,0-53.5,0.4-53.5,6.7c0,0.8,0.8,1.6,1.6,2l50.8,46.4l1.2,1.2l1.2-1.2l50.4-46.4
	C181.5,335.7,181.9,335.3,181.9,334.5z M128.8,330.6c26.6,0,44,2,49.2,3.6c-4.8,1.6-22.6,3.6-49.2,3.6s-44-2-49.2-3.6
	C84.4,332.5,102.2,330.6,128.8,330.6z M128.4,378.9L82,338.1c12.3,2.8,37.3,3.2,46.4,3.2c9.1,0,34.1-0.4,46.4-3.2L128.4,378.9z"/>
<path d="M101,348.8c-1.2,0-2.4-0.8-2.4-2.4c0-1.2,0.8-2.4,2.4-2.4s2.4,0.8,2.4,2.4C103,347.6,102.2,348.8,101,348.8z M101,345.2
	c-0.8,0-1.2,0.8-1.2,1.2c0,0.8,0.8,1.2,1.2,1.2c0.8,0,1.2-0.8,1.2-1.2C102.2,345.6,101.4,345.2,101,345.2z"/>
<path d="M119.3,360.7c-0.8,0-1.6-0.8-1.6-1.6c0-0.8,0.8-1.6,1.6-1.6c0.8,0,1.6,0.8,1.6,1.6S120.1,360.7,119.3,360.7z M119.3,357.9
	c-0.4,0-0.8,0.4-0.8,0.8s0.4,0.8,0.8,0.8s0.8-0.4,0.8-0.8S119.7,357.9,119.3,357.9z"/>
<path d="M128.4,352.4c-2,0-3.6-1.6-3.6-3.6s1.6-3.6,3.6-3.6s3.6,1.6,3.6,3.6S130.4,352.4,128.4,352.4z M128.4,346.4
	c-1.6,0-2.8,1.2-2.8,2.8c0,1.6,1.2,2.8,2.8,2.8s2.8-1.2,2.8-2.8S130,346.4,128.4,346.4z"/>
<path d="M129.2,370.6c-0.8,0-1.6-0.8-1.6-1.6c0-0.8,0.8-1.6,1.6-1.6s1.6,0.8,1.6,1.6C130.8,369.8,130,370.6,129.2,370.6z
	 M129.2,368.6c-0.4,0-0.8,0.4-0.8,0.8s0.4,0.8,0.8,0.8c0.4,0,0.8-0.4,0.8-0.8S129.6,368.6,129.2,368.6z"/>
<path d="M138.7,355.1c-1.2,0-2.4-0.8-2.4-2.4s0.8-2.4,2.4-2.4c1.2,0,2.4,0.8,2.4,2.4S139.9,355.1,138.7,355.1z M138.7,351.6
	c-0.8,0-1.2,0.8-1.2,1.2c0,0.4,0.8,1.2,1.2,1.2c0.8,0,1.2-0.8,1.2-1.2S139.5,351.6,138.7,351.6z"/>
<circle cx="135.5" cy="362.7" r="1.2"/>
<path d="M153,348c-1.2,0-2.4-1.2-2.4-2.4c0-1.2,1.2-2.4,2.4-2.4s2.4,1.2,2.4,2.4C155.8,346.8,154.6,348,153,348z M153,343.6
	c-0.8,0-1.6,0.8-1.6,1.6c0,0.8,0.8,1.6,1.6,1.6s1.6-0.8,1.6-1.6S154.2,343.6,153,343.6z"/>
<circle cx="148.6" cy="356.7" r="1.2"/>
<circle cx="110.1" cy="348.4" r="1.2"/>
<path d="M110.9,358.3c-0.8,0-1.6-0.8-1.6-1.6c0-0.8,0.8-1.6,1.6-1.6c0.8,0,1.6,0.8,1.6,1.6S112.1,358.3,110.9,358.3z M110.9,355.9
	c-0.4,0-0.8,0.4-0.8,0.8s0.4,0.8,0.8,0.8s0.8-0.4,0.8-0.8C111.7,356.3,111.3,355.9,110.9,355.9z"/>
<path d="M178.8,307.2v-1.6l0,0C178.8,306,178.8,306.8,178.8,307.2z"/>
<path d="M128.4,390.1l-72.6-71c3.6,0.8,9.1,2,17.1,2.8c14.7,1.6,34.5,2.8,55.5,2.8c17.5,0,34.1-0.8,48-2c-0.4-1.2-0.4-2-0.8-3.2
	c-12.7,0.8-28.6,1.6-47.2,1.6c-45.2,0-73-4.4-76.2-7.1c3.2-3.2,31.3-7.1,76.2-7.1c17.1,0,33.3,0.8,46.8,2c0-1.2,0.4-2,0.8-3.2
	c-13.5-1.2-30.5-2-47.6-2c-21,0-40.5,0.8-55.5,2.8c-24.2,2.8-24.2,6.3-24.2,7.9c0,0.4,0,0.4,0,0.8l0,0l0,0c0.4,0.4,0.8,1.2,2,2
	l75,76.5c0.4,2.4,0.8,6.7,0.8,12.7c0.4,4.4,0.4,9.5,0.4,14.7c0,2.8,0,5.6,0,8.3c0,2.8,0,5.6,0,8.7c0,5.9-0.4,11.5-0.8,17.1
	s-0.8,10.3-0.8,14.7c0,2.4-0.4,4.4-0.4,5.9c-22.2,0.4-58.7,3.2-58.7,12.3c0,9.9,40.9,12.3,62.7,12.3s62.7-2.8,62.7-12.3
	c0-9.1-36.9-11.9-59.1-12.3c0-2-0.4-4-0.4-5.9c-0.4-4.4-0.8-9.5-0.8-14.7c-0.4-5.6-0.4-11.1-0.8-17.1c0-2.8,0-5.9,0-8.7
	c0-2.8,0-5.6,0-8.3c0-5.6,0.4-10.3,0.4-14.7c0.4-5.9,0.8-10.3,0.8-12.7l54.7-55.9c-0.8-0.8-1.2-1.2-2-2L128.4,390.1z M133.1,483.7
	c0,0-0.4-1.6-0.4-4c0-0.4,0-0.8,0-1.2c36.5,0.4,55.5,5.9,55.5,9.1s-20.2,9.1-59.5,9.1c-38.9,0-59.5-5.9-59.5-9.1s19-8.7,55.1-9.1
	c0,0.4,0,0.8,0,1.2c-0.4,2.4-0.4,4-0.4,4s1.2,1.6,4.4,1.6C131.6,485.6,133.1,483.7,133.1,483.7z"/>
<path d="M192.6,330.6l12.7-13.1c0-1.6,0-2.4,0-2.4S197,324.2,192.6,330.6z"/>
<path d="M206.9,316.3L206.9,316.3C207.3,315.9,207.3,315.9,206.9,316.3l0.4-0.4c-0.4-0.4-0.4-0.4-0.4-0.4S206.9,315.5,206.9,316.3z"
	/>
<path d="M218.4,284.5c-15.9-6.7-34.5,0.8-41.2,16.7c-0.4,1.2-1.2,2.8-1.2,4c-13.5-1.2-30.5-2-47.6-2c-21,0-40.5,0.8-55.5,2.8
	c-24.2,2.8-24.2,6.3-24.2,7.9c0,0.4,0,0.4,0,0.8l0,0l0,0c0.4,0.4,0.8,1.2,2,2l75,76.5c0.4,2.4,0.8,6.7,0.8,12.7
	c0.4,4.4,0.4,9.5,0.4,14.7c0,2.8,0,5.6,0,8.3s0,5.6,0,8.7c0,5.9-0.4,11.5-0.8,17.1s-0.8,10.3-0.8,14.7c0,2.4-0.4,4.4-0.4,5.9
	c-22.2,0.4-58.7,3.2-58.7,12.3c0,9.9,40.9,12.3,62.7,12.3s62.7-2.8,62.7-12.3c0-9.1-36.9-11.9-59.1-12.3c0-2-0.4-4-0.4-5.9
	c-0.4-4.4-0.8-9.5-0.8-14.7c-0.4-5.6-0.4-11.1-0.8-17.1c0-2.8,0-5.9,0-8.7c0-2.8,0-5.6,0-8.3c0-5.6,0.4-10.3,0.4-14.7
	c0.4-5.9,0.8-10.3,0.8-12.7l54.7-55.9c2.4,2,5.2,3.6,7.9,4.8c15.9,6.7,34.5-0.8,41.2-16.7C241.8,309.5,234.3,291.3,218.4,284.5z
	 M195.4,287.3c3.2-1.2,5.6-2.4,7.1,1.6c2.8,6.7,2.8,23,2.8,23s-11.1-11.5-13.9-18.2C189.5,288.9,192.2,288.5,195.4,287.3z
	 M178.8,305.6c0.4-0.8,0.8-2,1.2-3.2c1.2-3.2,2.4-5.6,6.3-4c6.7,2.8,18.2,14.3,18.2,14.3s-16.3,0-22.6-3.2c-2-0.8-2.8-1.6-2.8-2.8
	L178.8,305.6c-0.4,0-0.8,0-1.6,0C178,305.6,178.4,305.6,178.8,305.6z M179.2,319.1c0.4-0.8,1.2-1.6,2.4-2c5.9-2.4,19.8-2.8,22.2-2.8
	C201.4,315.9,192.6,317.5,179.2,319.1z M128.4,306.8c17.1,0,33.3,0.8,46.8,2c-0.4,3.6-0.4,7.1,0,10.7c-12.3,0.8-28.2,1.6-46.8,1.6
	c-45.2,0-73-4.4-76.2-7.1C55,310.7,83.2,306.8,128.4,306.8z M133.1,483.7c0,0-0.4-1.6-0.4-4c0-0.4,0-0.8,0-1.2
	c36.5,0.4,55.5,5.9,55.5,9.1s-20.2,9.1-59.5,9.1c-38.9,0-59.5-5.9-59.5-9.1s19-8.7,55.1-9.1c0,0.4,0,0.8,0,1.2c-0.4,2.4-0.4,4-0.4,4
	s1.2,1.6,4.4,1.6C131.6,485.6,133.1,483.7,133.1,483.7z M128.4,390.1l-72.6-71c3.6,0.8,9.1,2,17.1,2.8c14.7,1.6,34.5,2.8,55.5,2.8
	s40.5-0.8,55.5-2.8c6.7-0.8,11.5-1.6,15.1-2.4c-4,3.2-8.7,7.1-12.3,8.3c-4.4,2-5.9-3.2-6.3-4c-1.2,0-2,0-3.2,0.4
	c1.6,4.8,2.4,5.9,5.9,9.5l17.8-15.1l0,0L128.4,390.1z M202.6,338.1c-2,4.4-4,2.8-7.1,1.6c-3.2-1.2-5.6-2.4-4-6.3
	c0.4-0.8,0.8-1.6,1.6-2.8l12.7-13.1C205.3,322.6,204.5,332.9,202.6,338.1z M232.3,302.8c1.2,3.2,2.4,5.6-1.6,7.1
	c-6.7,2.8-23,2.8-23,2.8s11.5-11.1,18.2-13.9C230.7,296.8,231.1,299.6,232.3,302.8z M209.7,288.9c2-4.4,4-2.8,7.1-1.6
	c3.2,1.2,5.6,2.4,4,6.3c-2.8,6.7-14.3,18.2-14.3,18.2S206.9,295.3,209.7,288.9z M216.8,339.7c-3.2,1.2-5.6,2.4-7.1-1.6
	c-2.4-5.9-2.8-18.6-2.8-21.8l-0.8,0.8l0.8-0.8l0,0l1.2-1.2l-0.8,0.8c2,2,11.1,11.9,13.5,17.8C222.8,338.1,220,338.5,216.8,339.7z
	 M232.3,324.2c-1.2,3.2-2.4,5.6-6.3,4c-6.7-2.8-18.2-14.3-18.2-14.3s16.3,0,22.6,3.2C235.5,319.1,233.5,321,232.3,324.2z"/>
<text transform="matrix(1 0 0 1 252.136 377.2925)" font-family="'MonotypeCorsiva'" font-size="71.3934">cocktails</text>
<text transform="matrix(1 0 0 1 252.136 462.9657)" font-family="'MonotypeCorsiva'" font-size="71.3934">@lewagonbar</text>
</svg>
