<?xml version="1.0" encoding="utf-8"?>
<!-- Generator: Adobe Illustrator 18.0.0, SVG Export Plug-In . SVG Version: 6.00 Build 0)  -->
<!DOCTYPE svg PUBLIC "-//W3C//DTD SVG 1.1//EN" "http://www.w3.org/Graphics/SVG/1.1/DTD/svg11.dtd">
<svg version="1.1" id="Layer_1" xmlns="http://www.w3.org/2000/svg" xmlns:xlink="http://www.w3.org/1999/xlink" x="0px" y="0px"
	 viewBox="0 508 876 284" enable-background="new 0 508 876 284" xml:space="preserve">
<path d="M172.1,587.9c0-6-38.7-6.3-50.6-6.3c-12,0-50.6,0.4-50.6,6.3c0,0.8,0.8,1.5,1.5,1.9l48.1,43.9l1.1,1.1l1.1-1.1l47.7-43.9
	C171.7,589.1,172.1,588.7,172.1,587.9z M121.8,584.2c25.2,0,41.6,1.9,46.5,3.4c-4.5,1.5-21.4,3.4-46.5,3.4s-41.6-1.9-46.5-3.4
	C79.8,586,96.7,584.2,121.8,584.2z M121.5,629.9l-43.9-38.6c11.6,2.6,35.3,3,43.9,3c8.6,0,32.3-0.4,43.9-3L121.5,629.9z"/>
<path d="M95.5,601.5c-1.1,0-2.3-0.8-2.3-2.3c0-1.1,0.8-2.3,2.3-2.3s2.3,0.8,2.3,2.3C97.4,600.3,96.7,601.5,95.5,601.5z M95.5,598.1
	c-0.8,0-1.1,0.8-1.1,1.1c0,0.8,0.8,1.1,1.1,1.1c0.8,0,1.1-0.8,1.1-1.1C96.7,598.4,95.9,598.1,95.5,598.1z"/>
<path d="M112.8,612.7c-0.8,0-1.5-0.8-1.5-1.5c0-0.8,0.8-1.5,1.5-1.5s1.5,0.8,1.5,1.5C114.4,612,113.6,612.7,112.8,612.7z
	 M112.8,610.1c-0.4,0-0.8,0.4-0.8,0.8s0.4,0.8,0.8,0.8s0.8-0.4,0.8-0.8S113.2,610.1,112.8,610.1z"/>
<path d="M121.5,604.9c-1.9,0-3.4-1.5-3.4-3.4c0-1.9,1.5-3.4,3.4-3.4s3.4,1.5,3.4,3.4C124.9,603.4,123.3,604.9,121.5,604.9z
	 M121.5,599.2c-1.5,0-2.6,1.1-2.6,2.6s1.1,2.6,2.6,2.6s2.6-1.1,2.6-2.6S123,599.2,121.5,599.2z"/>
<path d="M122.2,622.1c-0.8,0-1.5-0.8-1.5-1.5c0-0.8,0.8-1.5,1.5-1.5c0.8,0,1.5,0.8,1.5,1.5S123,622.1,122.2,622.1z M122.2,620.2
	c-0.4,0-0.8,0.4-0.8,0.8s0.4,0.8,0.8,0.8c0.4,0,0.8-0.4,0.8-0.8S122.6,620.2,122.2,620.2z"/>
<path d="M131.2,607.4c-1.1,0-2.3-0.8-2.3-2.3s0.8-2.3,2.3-2.3c1.1,0,2.3,0.8,2.3,2.3S132.3,607.4,131.2,607.4z M131.2,604.1
	c-0.8,0-1.1,0.8-1.1,1.1c0,0.4,0.8,1.1,1.1,1.1c0.8,0,1.1-0.8,1.1-1.1C132.3,604.9,132,604.1,131.2,604.1z"/>
<circle cx="128.2" cy="614.6" r="1.1"/>
<path d="M144.7,600.7c-1.1,0-2.3-1.1-2.3-2.3s1.1-2.3,2.3-2.3s2.3,1.1,2.3,2.3C147.4,599.6,146.2,600.7,144.7,600.7z M144.7,596.5
	c-0.8,0-1.5,0.8-1.5,1.5s0.8,1.5,1.5,1.5s1.5-0.8,1.5-1.5C146.2,597.3,145.9,596.5,144.7,596.5z"/>
<circle cx="140.6" cy="608.9" r="1.1"/>
<circle cx="104.1" cy="601.1" r="1.1"/>
<path d="M104.9,610.4c-0.8,0-1.5-0.8-1.5-1.5c0-0.8,0.8-1.5,1.5-1.5s1.5,0.8,1.5,1.5C106.4,609.7,106,610.4,104.9,610.4z
	 M104.9,608.2c-0.4,0-0.8,0.4-0.8,0.8s0.4,0.8,0.8,0.8c0.4,0,0.8-0.4,0.8-0.8C105.7,608.6,105.3,608.2,104.9,608.2z"/>
<path d="M169.1,562.1v-1.5l0,0C169.1,561,169.1,561.7,169.1,562.1z"/>
<path d="M121.5,640.5l-68.7-67.2c3.4,0.8,8.6,1.9,16.2,2.6c13.9,1.5,32.6,2.6,52.5,2.6c16.6,0,32.3-0.8,45.4-1.9
	c-0.4-1.1-0.4-1.9-0.8-3c-12,0.8-27.1,1.5-44.6,1.5c-42.8,0-69.1-4.2-72.1-6.7c3-3,29.6-6.7,72.1-6.7c16.2,0,31.5,0.8,44.3,1.9
	c0-1.1,0.4-1.9,0.8-3c-12.8-1.1-28.9-1.9-45-1.9c-19.9,0-38.3,0.8-52.5,2.6c-22.9,2.6-22.9,6-22.9,7.5c0,0.4,0,0.4,0,0.8l0,0l0,0
	c0.4,0.4,0.8,1.1,1.9,1.9l70.9,72.4c0.4,2.3,0.8,6.3,0.8,12c0.4,4.2,0.4,9,0.4,13.9c0,2.6,0,5.3,0,7.9c0,2.6,0,5.3,0,8.2
	c0,5.6-0.4,10.9-0.8,16.2s-0.8,9.7-0.8,13.9c0,2.3-0.4,4.2-0.4,5.6c-21,0.4-55.5,3-55.5,11.6c0,9.4,38.7,11.6,59.3,11.6
	s59.3-2.6,59.3-11.6c0-8.6-34.9-11.3-55.9-11.6c0-1.9-0.4-3.8-0.4-5.6c-0.4-4.2-0.8-9-0.8-13.9c-0.4-5.3-0.4-10.5-0.8-16.2
	c0-2.6,0-5.6,0-8.2c0-2.6,0-5.3,0-7.9c0-5.3,0.4-9.7,0.4-13.9c0.4-5.6,0.8-9.7,0.8-12l51.7-52.9c-0.8-0.8-1.1-1.1-1.9-1.9
	L121.5,640.5z M125.9,729.1c0,0-0.4-1.5-0.4-3.8c0-0.4,0-0.8,0-1.1c34.5,0.4,52.5,5.6,52.5,8.6s-19.1,8.6-56.3,8.6
	c-36.8,0-56.3-5.6-56.3-8.6s18-8.2,52.1-8.6c0,0.4,0,0.8,0,1.1c-0.4,2.3-0.4,3.8-0.4,3.8s1.1,1.5,4.2,1.5
	C124.5,730.9,125.9,729.1,125.9,729.1z"/>
<path d="M182.2,584.2l12-12.4c0-1.5,0-2.3,0-2.3S186.3,578.2,182.2,584.2z"/>
<path d="M195.7,570.7L195.7,570.7C196.1,570.3,196.1,570.3,195.7,570.7l0.4-0.4c-0.4-0.4-0.4-0.4-0.4-0.4S195.7,570,195.7,570.7z"/>
<path d="M206.6,540.6c-15-6.3-32.6,0.8-39,15.8c-0.4,1.1-1.1,2.6-1.1,3.8c-12.8-1.1-28.9-1.9-45-1.9c-19.9,0-38.3,0.8-52.5,2.6
	c-22.9,2.6-22.9,6-22.9,7.5c0,0.4,0,0.4,0,0.8l0,0l0,0c0.4,0.4,0.8,1.1,1.9,1.9l70.9,72.4c0.4,2.3,0.8,6.3,0.8,12
	c0.4,4.2,0.4,9,0.4,13.9c0,2.6,0,5.3,0,7.9s0,5.3,0,8.2c0,5.6-0.4,10.9-0.8,16.2s-0.8,9.7-0.8,13.9c0,2.3-0.4,4.2-0.4,5.6
	c-21,0.4-55.5,3-55.5,11.6c0,9.4,38.7,11.6,59.3,11.6s59.3-2.6,59.3-11.6c0-8.6-34.9-11.3-55.9-11.6c0-1.9-0.4-3.8-0.4-5.6
	c-0.4-4.2-0.8-9-0.8-13.9c-0.4-5.3-0.4-10.5-0.8-16.2c0-2.6,0-5.6,0-8.2c0-2.6,0-5.3,0-7.9c0-5.3,0.4-9.7,0.4-13.9
	c0.4-5.6,0.8-9.7,0.8-12l51.7-52.9c2.3,1.9,4.9,3.4,7.5,4.5c15,6.3,32.6-0.8,39-15.8C228.7,564.3,221.6,547.1,206.6,540.6z
	 M184.8,543.3c3-1.1,5.3-2.3,6.7,1.5c2.6,6.3,2.6,21.8,2.6,21.8s-10.5-10.9-13.1-17.2C179.2,544.8,181.8,544.4,184.8,543.3z
	 M169.1,560.6c0.4-0.8,0.8-1.9,1.1-3c1.1-3,2.3-5.3,6-3.8c6.3,2.6,17.2,13.5,17.2,13.5s-15.4,0-21.4-3c-1.9-0.8-2.6-1.5-2.6-2.6
	L169.1,560.6c-0.4,0-0.8,0-1.5,0C168.4,560.6,168.7,560.6,169.1,560.6z M169.5,573.4c0.4-0.8,1.1-1.5,2.3-1.9
	c5.6-2.3,18.7-2.6,21-2.6C190.5,570.3,182.2,571.9,169.5,573.4z M121.5,561.7c16.2,0,31.5,0.8,44.3,1.9c-0.4,3.4-0.4,6.7,0,10.1
	c-11.6,0.8-26.7,1.5-44.3,1.5c-42.8,0-69.1-4.2-72.1-6.7C52,565.4,78.7,561.7,121.5,561.7z M125.9,729.1c0,0-0.4-1.5-0.4-3.8
	c0-0.4,0-0.8,0-1.1c34.5,0.4,52.5,5.6,52.5,8.6s-19.1,8.6-56.3,8.6c-36.8,0-56.3-5.6-56.3-8.6s18-8.2,52.1-8.6c0,0.4,0,0.8,0,1.1
	c-0.4,2.3-0.4,3.8-0.4,3.8s1.1,1.5,4.2,1.5C124.5,730.9,125.9,729.1,125.9,729.1z M121.5,640.5l-68.7-67.2c3.4,0.8,8.6,1.9,16.2,2.6
	c13.9,1.5,32.6,2.6,52.5,2.6s38.3-0.8,52.5-2.6c6.3-0.8,10.9-1.5,14.3-2.3c-3.8,3-8.2,6.7-11.6,7.9c-4.2,1.9-5.6-3-6-3.8
	c-1.1,0-1.9,0-3,0.4c1.5,4.5,2.3,5.6,5.6,9l16.8-14.3l0,0L121.5,640.5z M191.6,591.3c-1.9,4.2-3.8,2.6-6.7,1.5c-3-1.1-5.3-2.3-3.8-6
	c0.4-0.8,0.8-1.5,1.5-2.6l12-12.4C194.2,576.7,193.4,586.4,191.6,591.3z M219.7,557.9c1.1,3,2.3,5.3-1.5,6.7
	c-6.3,2.6-21.8,2.6-21.8,2.6s10.9-10.5,17.2-13.1C218.2,552.3,218.6,554.9,219.7,557.9z M198.4,544.8c1.9-4.2,3.8-2.6,6.7-1.5
	c3,1.1,5.3,2.3,3.8,6c-2.6,6.3-13.5,17.2-13.5,17.2S195.7,550.9,198.4,544.8z M205.1,592.9c-3,1.1-5.3,2.3-6.7-1.5
	c-2.3-5.6-2.6-17.6-2.6-20.6l-0.8,0.8l0.8-0.8l0,0l1.1-1.1l-0.8,0.8c1.9,1.9,10.5,11.3,12.8,16.8
	C210.7,591.3,208.1,591.7,205.1,592.9z M219.7,578.2c-1.1,3-2.3,5.3-6,3.8c-6.3-2.6-17.2-13.5-17.2-13.5s15.4,0,21.4,3
	C222.8,573.4,220.9,575.2,219.7,578.2z"/>
<text transform="matrix(1 0 0 1 242.4967 623.745)" enable-background="new    "><tspan x="0" y="0" font-family="'MonotypeCorsiva'" font-size="89.1046">awesome cocktails </tspan><tspan x="0" y="106.9" font-family="'MonotypeCorsiva'" font-size="89.1046">@lewagonbar</tspan></text>
</svg>
